<svg width="2880" height="1802" viewBox="0 0 2880 1802" version="1.1" xmlns="http://www.w3.org/2000/svg" xmlns:xlink="http://www.w3.org/1999/xlink" xmlns:figma="http://www.figma.com/figma/ns">
<title>Group</title>
<desc>Created using Figma</desc>
<g id="Canvas" transform="matrix(2 0 0 2 270 -1418)" figma:type="canvas">
<g id="Group" figma:type="frame">
<g id="Rectangle 14" figma:type="rounded-rectangle">
<use xlink:href="#path0_fill" transform="matrix(6.12323e-17 -1 1 6.12323e-17 -85 759)" fill="#FDF0FF"/>
</g>
<g id="RELAX FASHION NAILS MANICURE COOL SPA STYLE" figma:type="text">
<use xlink:href="#path1_fill" transform="translate(22 850)" fill="#D0D0D0" fill-opacity="0.2"/>
</g>
<g id="Rectangle 14" figma:type="vector">
<use xlink:href="#path0_fill" transform="translate(-135 709)" fill="#FDF0FF"/>
</g>
<g id="Rectangle 14" figma:type="rounded-rectangle">
<use xlink:href="#path0_fill" transform="matrix(6.12323e-17 -1 1 6.12323e-17 955 1610)" fill="#FDF0FF"/>
</g>
<g id="Rectangle 14" figma:type="rounded-rectangle">
<use xlink:href="#path0_fill" transform="translate(1255 1310)" fill="#FDF0FF"/>
</g>
</g>
</g>
<defs>
<path id="path0_fill" d="M 0 0L 50 0L 50 300L 0 300L 0 0Z"/>
<path id="path1_fill" d="M 32.544 72L 21.528 51.768L 17.352 51.768L 17.352 72L 5.256 72L 5.256 21.024L 24.696 21.024C 27.144 21.024 29.52 21.288 31.824 21.816C 34.176 22.296 36.264 23.136 38.088 24.336C 39.96 25.536 41.448 27.12 42.552 29.088C 43.656 31.056 44.208 33.504 44.208 36.432C 44.208 39.888 43.272 42.792 41.4 45.144C 39.528 47.496 36.936 49.176 33.624 50.184L 46.944 72L 32.544 72ZM 32.04 36.648C 32.04 35.448 31.776 34.488 31.248 33.768C 30.768 33 30.12 32.424 29.304 32.04C 28.536 31.608 27.648 31.32 26.64 31.176C 25.68 31.032 24.744 30.96 23.832 30.96L 17.28 30.96L 17.28 42.84L 23.112 42.84C 24.12 42.84 25.152 42.768 26.208 42.624C 27.264 42.432 28.224 42.12 29.088 41.688C 29.952 41.256 30.648 40.632 31.176 39.816C 31.752 39 32.04 37.944 32.04 36.648ZM 60.1982 72L 60.1982 21.024L 94.4702 21.024L 94.4702 31.464L 72.0782 31.464L 72.0782 41.04L 93.2462 41.04L 93.2462 50.904L 72.0782 50.904L 72.0782 61.488L 95.7662 61.488L 95.7662 72L 60.1982 72ZM 111.133 72L 111.133 21.024L 123.517 21.024L 123.517 61.272L 143.245 61.272L 143.245 72L 111.133 72ZM 190.791 72L 186.831 61.992L 167.103 61.992L 163.359 72L 149.967 72L 171.351 21.024L 183.303 21.024L 204.471 72L 190.791 72ZM 177.111 34.632L 170.631 52.128L 183.447 52.128L 177.111 34.632ZM 246.628 72L 235.468 54L 224.74 72L 210.052 72L 227.908 45.072L 211.492 21.024L 226.324 21.024L 235.828 36.864L 245.188 21.024L 259.516 21.024L 243.388 45.072L 261.82 72L 246.628 72ZM 411.033 31.536L 411.033 42.048L 430.761 42.048L 430.761 52.2L 411.033 52.2L 411.033 72L 398.865 72L 398.865 21.024L 432.417 21.024L 432.417 31.536L 411.033 31.536ZM 478.243 72L 474.283 61.992L 454.555 61.992L 450.811 72L 437.419 72L 458.803 21.024L 470.755 21.024L 491.923 72L 478.243 72ZM 464.563 34.632L 458.083 52.128L 470.899 52.128L 464.563 34.632ZM 530.264 34.272C 529.208 32.928 527.816 31.872 526.088 31.104C 524.408 30.288 522.776 29.88 521.192 29.88C 520.376 29.88 519.536 29.952 518.672 30.096C 517.856 30.24 517.112 30.528 516.44 30.96C 515.768 31.344 515.192 31.872 514.712 32.544C 514.28 33.168 514.064 33.984 514.064 34.992C 514.064 35.856 514.232 36.576 514.568 37.152C 514.952 37.728 515.48 38.232 516.152 38.664C 516.872 39.096 517.712 39.504 518.672 39.888C 519.632 40.224 520.712 40.584 521.912 40.968C 523.64 41.544 525.44 42.192 527.312 42.912C 529.184 43.584 530.888 44.496 532.424 45.648C 533.96 46.8 535.232 48.24 536.24 49.968C 537.248 51.648 537.752 53.76 537.752 56.304C 537.752 59.232 537.2 61.776 536.096 63.936C 535.04 66.048 533.6 67.8 531.776 69.192C 529.952 70.584 527.864 71.616 525.512 72.288C 523.16 72.96 520.736 73.296 518.24 73.296C 514.592 73.296 511.064 72.672 507.656 71.424C 504.248 70.128 501.416 68.304 499.16 65.952L 507.224 57.744C 508.472 59.28 510.104 60.576 512.12 61.632C 514.184 62.64 516.224 63.144 518.24 63.144C 519.152 63.144 520.04 63.048 520.904 62.856C 521.768 62.664 522.512 62.352 523.136 61.92C 523.808 61.488 524.336 60.912 524.72 60.192C 525.104 59.472 525.296 58.608 525.296 57.6C 525.296 56.64 525.056 55.824 524.576 55.152C 524.096 54.48 523.4 53.88 522.488 53.352C 521.624 52.776 520.52 52.272 519.176 51.84C 517.88 51.36 516.392 50.856 514.712 50.328C 513.08 49.8 511.472 49.176 509.888 48.456C 508.352 47.736 506.96 46.824 505.712 45.72C 504.512 44.568 503.528 43.2 502.76 41.616C 502.04 39.984 501.68 38.016 501.68 35.712C 501.68 32.88 502.256 30.456 503.408 28.44C 504.56 26.424 506.072 24.768 507.944 23.472C 509.816 22.176 511.928 21.24 514.28 20.664C 516.632 20.04 519.008 19.728 521.408 19.728C 524.288 19.728 527.216 20.256 530.192 21.312C 533.216 22.368 535.856 23.928 538.112 25.992L 530.264 34.272ZM 585.259 72L 585.259 50.688L 565.387 50.688L 565.387 72L 553.075 72L 553.075 21.024L 565.387 21.024L 565.387 40.32L 585.259 40.32L 585.259 21.024L 597.571 21.024L 597.571 72L 585.259 72ZM 615.259 72L 615.259 21.024L 627.643 21.024L 627.643 72L 615.259 72ZM 698.517 46.296C 698.517 50.328 697.821 54.024 696.429 57.384C 695.037 60.696 693.093 63.552 690.597 65.952C 688.149 68.304 685.221 70.128 681.813 71.424C 678.405 72.72 674.709 73.368 670.725 73.368C 666.741 73.368 663.045 72.72 659.637 71.424C 656.277 70.128 653.349 68.304 650.853 65.952C 648.405 63.552 646.485 60.696 645.093 57.384C 643.701 54.024 643.005 50.328 643.005 46.296C 643.005 42.216 643.701 38.544 645.093 35.28C 646.485 31.968 648.405 29.16 650.853 26.856C 653.349 24.552 656.277 22.776 659.637 21.528C 663.045 20.28 666.741 19.656 670.725 19.656C 674.709 19.656 678.405 20.28 681.813 21.528C 685.221 22.776 688.149 24.552 690.597 26.856C 693.093 29.16 695.037 31.968 696.429 35.28C 697.821 38.544 698.517 42.216 698.517 46.296ZM 685.341 46.296C 685.341 44.088 684.981 42.024 684.261 40.104C 683.541 38.184 682.533 36.552 681.237 35.208C 679.989 33.816 678.453 32.736 676.629 31.968C 674.853 31.152 672.885 30.744 670.725 30.744C 668.565 30.744 666.597 31.152 664.821 31.968C 663.045 32.736 661.509 33.816 660.213 35.208C 658.917 36.552 657.909 38.184 657.189 40.104C 656.517 42.024 656.181 44.088 656.181 46.296C 656.181 48.6 656.541 50.736 657.261 52.704C 657.981 54.624 658.965 56.28 660.213 57.672C 661.509 59.064 663.045 60.168 664.821 60.984C 666.597 61.752 668.565 62.136 670.725 62.136C 672.885 62.136 674.853 61.752 676.629 60.984C 678.405 60.168 679.941 59.064 681.237 57.672C 682.533 56.28 683.541 54.624 684.261 52.704C 684.981 50.736 685.341 48.6 685.341 46.296ZM 746.223 72L 725.703 38.664L 725.487 38.664L 725.775 72L 713.823 72L 713.823 21.024L 727.863 21.024L 748.311 54.288L 748.527 54.288L 748.239 21.024L 760.191 21.024L 760.191 72L 746.223 72ZM 188.856 170L 168.336 136.664L 168.12 136.664L 168.408 170L 156.456 170L 156.456 119.024L 170.496 119.024L 190.944 152.288L 191.16 152.288L 190.872 119.024L 202.824 119.024L 202.824 170L 188.856 170ZM 255.099 170L 251.139 159.992L 231.411 159.992L 227.667 170L 214.275 170L 235.659 119.024L 247.611 119.024L 268.779 170L 255.099 170ZM 241.419 132.632L 234.939 150.128L 247.755 150.128L 241.419 132.632ZM 280.192 170L 280.192 119.024L 292.576 119.024L 292.576 170L 280.192 170ZM 310.314 170L 310.314 119.024L 322.698 119.024L 322.698 159.272L 342.426 159.272L 342.426 170L 310.314 170ZM 382.34 132.272C 381.284 130.928 379.892 129.872 378.164 129.104C 376.484 128.288 374.852 127.88 373.268 127.88C 372.452 127.88 371.612 127.952 370.748 128.096C 369.932 128.24 369.188 128.528 368.516 128.96C 367.844 129.344 367.268 129.872 366.788 130.544C 366.356 131.168 366.14 131.984 366.14 132.992C 366.14 133.856 366.308 134.576 366.644 135.152C 367.028 135.728 367.556 136.232 368.228 136.664C 368.948 137.096 369.788 137.504 370.748 137.888C 371.708 138.224 372.788 138.584 373.988 138.968C 375.716 139.544 377.516 140.192 379.388 140.912C 381.26 141.584 382.964 142.496 384.5 143.648C 386.036 144.8 387.308 146.24 388.316 147.968C 389.324 149.648 389.828 151.76 389.828 154.304C 389.828 157.232 389.276 159.776 388.172 161.936C 387.116 164.048 385.676 165.8 383.852 167.192C 382.028 168.584 379.94 169.616 377.588 170.288C 375.236 170.96 372.812 171.296 370.316 171.296C 366.668 171.296 363.14 170.672 359.732 169.424C 356.324 168.128 353.492 166.304 351.236 163.952L 359.3 155.744C 360.548 157.28 362.18 158.576 364.196 159.632C 366.26 160.64 368.3 161.144 370.316 161.144C 371.228 161.144 372.116 161.048 372.98 160.856C 373.844 160.664 374.588 160.352 375.212 159.92C 375.884 159.488 376.412 158.912 376.796 158.192C 377.18 157.472 377.372 156.608 377.372 155.6C 377.372 154.64 377.132 153.824 376.652 153.152C 376.172 152.48 375.476 151.88 374.564 151.352C 373.7 150.776 372.596 150.272 371.252 149.84C 369.956 149.36 368.468 148.856 366.788 148.328C 365.156 147.8 363.548 147.176 361.964 146.456C 360.428 145.736 359.036 144.824 357.788 143.72C 356.588 142.568 355.604 141.2 354.836 139.616C 354.116 137.984 353.756 136.016 353.756 133.712C 353.756 130.88 354.332 128.456 355.484 126.44C 356.636 124.424 358.148 122.768 360.02 121.472C 361.892 120.176 364.004 119.24 366.356 118.664C 368.708 118.04 371.084 117.728 373.484 117.728C 376.364 117.728 379.292 118.256 382.268 119.312C 385.292 120.368 387.932 121.928 390.188 123.992L 382.34 132.272ZM 577.375 170L 577.663 133.928L 577.447 133.928L 564.199 170L 555.559 170L 542.671 133.928L 542.455 133.928L 542.743 170L 531.151 170L 531.151 119.024L 548.647 119.024L 560.239 151.712L 560.527 151.712L 571.615 119.024L 589.399 119.024L 589.399 170L 577.375 170ZM 641.677 170L 637.717 159.992L 617.989 159.992L 614.245 170L 600.853 170L 622.237 119.024L 634.189 119.024L 655.357 170L 641.677 170ZM 627.997 132.632L 621.517 150.128L 634.333 150.128L 627.997 132.632ZM 699.17 170L 678.65 136.664L 678.434 136.664L 678.722 170L 666.77 170L 666.77 119.024L 680.81 119.024L 701.258 152.288L 701.474 152.288L 701.186 119.024L 713.138 119.024L 713.138 170L 699.17 170ZM 730.853 170L 730.853 119.024L 743.237 119.024L 743.237 170L 730.853 170ZM 805.831 162.944C 803.575 165.536 800.791 167.6 797.479 169.136C 794.167 170.624 790.351 171.368 786.031 171.368C 782.095 171.368 778.447 170.72 775.087 169.424C 771.775 168.128 768.895 166.304 766.447 163.952C 763.999 161.552 762.079 158.696 760.687 155.384C 759.295 152.072 758.599 148.424 758.599 144.44C 758.599 140.36 759.295 136.664 760.687 133.352C 762.127 130.04 764.095 127.232 766.591 124.928C 769.087 122.576 772.015 120.776 775.375 119.528C 778.735 118.28 782.359 117.656 786.247 117.656C 789.847 117.656 793.375 118.304 796.831 119.6C 800.335 120.848 803.167 122.696 805.327 125.144L 796.975 133.496C 795.823 131.912 794.311 130.736 792.439 129.968C 790.567 129.2 788.647 128.816 786.679 128.816C 784.519 128.816 782.527 129.224 780.703 130.04C 778.927 130.808 777.391 131.888 776.095 133.28C 774.799 134.672 773.791 136.328 773.071 138.248C 772.351 140.12 771.991 142.184 771.991 144.44C 771.991 146.744 772.351 148.856 773.071 150.776C 773.791 152.696 774.775 154.352 776.023 155.744C 777.319 157.088 778.855 158.144 780.631 158.912C 782.407 159.68 784.351 160.064 786.463 160.064C 788.911 160.064 791.047 159.584 792.871 158.624C 794.695 157.664 796.159 156.416 797.263 154.88L 805.831 162.944ZM 861.508 150.776C 861.508 153.848 860.98 156.656 859.924 159.2C 858.916 161.696 857.452 163.856 855.532 165.68C 853.612 167.456 851.284 168.848 848.548 169.856C 845.86 170.864 842.86 171.368 839.548 171.368C 836.188 171.368 833.164 170.864 830.476 169.856C 827.788 168.848 825.508 167.456 823.636 165.68C 821.764 163.856 820.324 161.696 819.316 159.2C 818.308 156.656 817.804 153.848 817.804 150.776L 817.804 119.024L 830.044 119.024L 830.044 149.768C 830.044 151.16 830.212 152.48 830.548 153.728C 830.932 154.976 831.484 156.104 832.204 157.112C 832.972 158.072 833.956 158.84 835.156 159.416C 836.404 159.992 837.892 160.28 839.62 160.28C 841.348 160.28 842.812 159.992 844.012 159.416C 845.26 158.84 846.268 158.072 847.036 157.112C 847.804 156.104 848.356 154.976 848.692 153.728C 849.028 152.48 849.196 151.16 849.196 149.768L 849.196 119.024L 861.508 119.024L 861.508 150.776ZM 905.952 170L 894.936 149.768L 890.76 149.768L 890.76 170L 878.664 170L 878.664 119.024L 898.104 119.024C 900.552 119.024 902.928 119.288 905.232 119.816C 907.584 120.296 909.672 121.136 911.496 122.336C 913.368 123.536 914.856 125.12 915.96 127.088C 917.064 129.056 917.616 131.504 917.616 134.432C 917.616 137.888 916.68 140.792 914.808 143.144C 912.936 145.496 910.344 147.176 907.032 148.184L 920.352 170L 905.952 170ZM 905.448 134.648C 905.448 133.448 905.184 132.488 904.656 131.768C 904.176 131 903.528 130.424 902.712 130.04C 901.944 129.608 901.056 129.32 900.048 129.176C 899.088 129.032 898.152 128.96 897.24 128.96L 890.688 128.96L 890.688 140.84L 896.52 140.84C 897.528 140.84 898.56 140.768 899.616 140.624C 900.672 140.432 901.632 140.12 902.496 139.688C 903.36 139.256 904.056 138.632 904.584 137.816C 905.16 137 905.448 135.944 905.448 134.648ZM 933.606 170L 933.606 119.024L 967.878 119.024L 967.878 129.464L 945.486 129.464L 945.486 139.04L 966.654 139.04L 966.654 148.904L 945.486 148.904L 945.486 159.488L 969.174 159.488L 969.174 170L 933.606 170ZM 50.112 261.944C 47.856 264.536 45.072 266.6 41.76 268.136C 38.448 269.624 34.632 270.368 30.312 270.368C 26.376 270.368 22.728 269.72 19.368 268.424C 16.056 267.128 13.176 265.304 10.728 262.952C 8.28 260.552 6.36 257.696 4.968 254.384C 3.576 251.072 2.88 247.424 2.88 243.44C 2.88 239.36 3.576 235.664 4.968 232.352C 6.408 229.04 8.376 226.232 10.872 223.928C 13.368 221.576 16.296 219.776 19.656 218.528C 23.016 217.28 26.64 216.656 30.528 216.656C 34.128 216.656 37.656 217.304 41.112 218.6C 44.616 219.848 47.448 221.696 49.608 224.144L 41.256 232.496C 40.104 230.912 38.592 229.736 36.72 228.968C 34.848 228.2 32.928 227.816 30.96 227.816C 28.8 227.816 26.808 228.224 24.984 229.04C 23.208 229.808 21.672 230.888 20.376 232.28C 19.08 233.672 18.072 235.328 17.352 237.248C 16.632 239.12 16.272 241.184 16.272 243.44C 16.272 245.744 16.632 247.856 17.352 249.776C 18.072 251.696 19.056 253.352 20.304 254.744C 21.6 256.088 23.136 257.144 24.912 257.912C 26.688 258.68 28.632 259.064 30.744 259.064C 33.192 259.064 35.328 258.584 37.152 257.624C 38.976 256.664 40.44 255.416 41.544 253.88L 50.112 261.944ZM 114.881 243.296C 114.881 247.328 114.185 251.024 112.793 254.384C 111.401 257.696 109.457 260.552 106.961 262.952C 104.513 265.304 101.585 267.128 98.1771 268.424C 94.7691 269.72 91.0731 270.368 87.0891 270.368C 83.1051 270.368 79.4091 269.72 76.0011 268.424C 72.6411 267.128 69.7131 265.304 67.2171 262.952C 64.7691 260.552 62.8491 257.696 61.4571 254.384C 60.0651 251.024 59.3691 247.328 59.3691 243.296C 59.3691 239.216 60.0651 235.544 61.4571 232.28C 62.8491 228.968 64.7691 226.16 67.2171 223.856C 69.7131 221.552 72.6411 219.776 76.0011 218.528C 79.4091 217.28 83.1051 216.656 87.0891 216.656C 91.0731 216.656 94.7691 217.28 98.1771 218.528C 101.585 219.776 104.513 221.552 106.961 223.856C 109.457 226.16 111.401 228.968 112.793 232.28C 114.185 235.544 114.881 239.216 114.881 243.296ZM 101.705 243.296C 101.705 241.088 101.345 239.024 100.625 237.104C 99.9051 235.184 98.8971 233.552 97.6011 232.208C 96.3531 230.816 94.8171 229.736 92.9931 228.968C 91.2171 228.152 89.2491 227.744 87.0891 227.744C 84.9291 227.744 82.9611 228.152 81.1851 228.968C 79.4091 229.736 77.8731 230.816 76.5771 232.208C 75.2811 233.552 74.2731 235.184 73.5531 237.104C 72.8811 239.024 72.5451 241.088 72.5451 243.296C 72.5451 245.6 72.9051 247.736 73.6251 249.704C 74.3451 251.624 75.3291 253.28 76.5771 254.672C 77.8731 256.064 79.4091 257.168 81.1851 257.984C 82.9611 258.752 84.9291 259.136 87.0891 259.136C 89.2491 259.136 91.2171 258.752 92.9931 257.984C 94.7691 257.168 96.3051 256.064 97.6011 254.672C 98.8971 253.28 99.9051 251.624 100.625 249.704C 101.345 247.736 101.705 245.6 101.705 243.296ZM 183.323 243.296C 183.323 247.328 182.627 251.024 181.235 254.384C 179.843 257.696 177.899 260.552 175.403 262.952C 172.955 265.304 170.027 267.128 166.619 268.424C 163.211 269.72 159.515 270.368 155.531 270.368C 151.547 270.368 147.851 269.72 144.443 268.424C 141.083 267.128 138.155 265.304 135.659 262.952C 133.211 260.552 131.291 257.696 129.899 254.384C 128.507 251.024 127.811 247.328 127.811 243.296C 127.811 239.216 128.507 235.544 129.899 232.28C 131.291 228.968 133.211 226.16 135.659 223.856C 138.155 221.552 141.083 219.776 144.443 218.528C 147.851 217.28 151.547 216.656 155.531 216.656C 159.515 216.656 163.211 217.28 166.619 218.528C 170.027 219.776 172.955 221.552 175.403 223.856C 177.899 226.16 179.843 228.968 181.235 232.28C 182.627 235.544 183.323 239.216 183.323 243.296ZM 170.147 243.296C 170.147 241.088 169.787 239.024 169.067 237.104C 168.347 235.184 167.339 233.552 166.043 232.208C 164.795 230.816 163.259 229.736 161.435 228.968C 159.659 228.152 157.691 227.744 155.531 227.744C 153.371 227.744 151.403 228.152 149.627 228.968C 147.851 229.736 146.315 230.816 145.019 232.208C 143.723 233.552 142.715 235.184 141.995 237.104C 141.323 239.024 140.987 241.088 140.987 243.296C 140.987 245.6 141.347 247.736 142.067 249.704C 142.787 251.624 143.771 253.28 145.019 254.672C 146.315 256.064 147.851 257.168 149.627 257.984C 151.403 258.752 153.371 259.136 155.531 259.136C 157.691 259.136 159.659 258.752 161.435 257.984C 163.211 257.168 164.747 256.064 166.043 254.672C 167.339 253.28 168.347 251.624 169.067 249.704C 169.787 247.736 170.147 245.6 170.147 243.296ZM 198.629 269L 198.629 218.024L 211.013 218.024L 211.013 258.272L 230.741 258.272L 230.741 269L 198.629 269ZM 394.898 231.272C 393.842 229.928 392.45 228.872 390.722 228.104C 389.042 227.288 387.41 226.88 385.826 226.88C 385.01 226.88 384.17 226.952 383.306 227.096C 382.49 227.24 381.746 227.528 381.074 227.96C 380.402 228.344 379.826 228.872 379.346 229.544C 378.914 230.168 378.698 230.984 378.698 231.992C 378.698 232.856 378.866 233.576 379.202 234.152C 379.586 234.728 380.114 235.232 380.786 235.664C 381.506 236.096 382.346 236.504 383.306 236.888C 384.266 237.224 385.346 237.584 386.546 237.968C 388.274 238.544 390.074 239.192 391.946 239.912C 393.818 240.584 395.522 241.496 397.058 242.648C 398.594 243.8 399.866 245.24 400.874 246.968C 401.882 248.648 402.386 250.76 402.386 253.304C 402.386 256.232 401.834 258.776 400.73 260.936C 399.674 263.048 398.234 264.8 396.41 266.192C 394.586 267.584 392.498 268.616 390.146 269.288C 387.794 269.96 385.37 270.296 382.874 270.296C 379.226 270.296 375.698 269.672 372.29 268.424C 368.882 267.128 366.05 265.304 363.794 262.952L 371.858 254.744C 373.106 256.28 374.738 257.576 376.754 258.632C 378.818 259.64 380.858 260.144 382.874 260.144C 383.786 260.144 384.674 260.048 385.538 259.856C 386.402 259.664 387.146 259.352 387.77 258.92C 388.442 258.488 388.97 257.912 389.354 257.192C 389.738 256.472 389.93 255.608 389.93 254.6C 389.93 253.64 389.69 252.824 389.21 252.152C 388.73 251.48 388.034 250.88 387.122 250.352C 386.258 249.776 385.154 249.272 383.81 248.84C 382.514 248.36 381.026 247.856 379.346 247.328C 377.714 246.8 376.106 246.176 374.522 245.456C 372.986 244.736 371.594 243.824 370.346 242.72C 369.146 241.568 368.162 240.2 367.394 238.616C 366.674 236.984 366.314 235.016 366.314 232.712C 366.314 229.88 366.89 227.456 368.042 225.44C 369.194 223.424 370.706 221.768 372.578 220.472C 374.45 219.176 376.562 218.24 378.914 217.664C 381.266 217.04 383.642 216.728 386.042 216.728C 388.922 216.728 391.85 217.256 394.826 218.312C 397.85 219.368 400.49 220.928 402.746 222.992L 394.898 231.272ZM 456.373 233.72C 456.373 236.696 455.821 239.216 454.717 241.28C 453.613 243.296 452.125 244.928 450.253 246.176C 448.381 247.424 446.221 248.336 443.773 248.912C 441.325 249.488 438.781 249.776 436.141 249.776L 430.021 249.776L 430.021 269L 417.709 269L 417.709 218.024L 436.429 218.024C 439.213 218.024 441.805 218.312 444.205 218.888C 446.653 219.416 448.765 220.304 450.541 221.552C 452.365 222.752 453.781 224.36 454.789 226.376C 455.845 228.344 456.373 230.792 456.373 233.72ZM 444.061 233.792C 444.061 232.592 443.821 231.608 443.341 230.84C 442.861 230.072 442.213 229.472 441.397 229.04C 440.581 228.608 439.645 228.32 438.589 228.176C 437.581 228.032 436.525 227.96 435.421 227.96L 430.021 227.96L 430.021 239.984L 435.205 239.984C 436.357 239.984 437.461 239.888 438.517 239.696C 439.573 239.504 440.509 239.168 441.325 238.688C 442.189 238.208 442.861 237.584 443.341 236.816C 443.821 236 444.061 234.992 444.061 233.792ZM 501.235 269L 497.275 258.992L 477.547 258.992L 473.803 269L 460.411 269L 481.795 218.024L 493.747 218.024L 514.915 269L 501.235 269ZM 487.555 231.632L 481.075 249.128L 493.891 249.128L 487.555 231.632ZM 677.99 231.272C 676.934 229.928 675.542 228.872 673.814 228.104C 672.134 227.288 670.502 226.88 668.918 226.88C 668.102 226.88 667.262 226.952 666.398 227.096C 665.582 227.24 664.838 227.528 664.166 227.96C 663.494 228.344 662.918 228.872 662.438 229.544C 662.006 230.168 661.79 230.984 661.79 231.992C 661.79 232.856 661.958 233.576 662.294 234.152C 662.678 234.728 663.206 235.232 663.878 235.664C 664.598 236.096 665.438 236.504 666.398 236.888C 667.358 237.224 668.438 237.584 669.638 237.968C 671.366 238.544 673.166 239.192 675.038 239.912C 676.91 240.584 678.614 241.496 680.15 242.648C 681.686 243.8 682.958 245.24 683.966 246.968C 684.974 248.648 685.478 250.76 685.478 253.304C 685.478 256.232 684.926 258.776 683.822 260.936C 682.766 263.048 681.326 264.8 679.502 266.192C 677.678 267.584 675.59 268.616 673.238 269.288C 670.886 269.96 668.462 270.296 665.966 270.296C 662.318 270.296 658.79 269.672 655.382 268.424C 651.974 267.128 649.142 265.304 646.886 262.952L 654.95 254.744C 656.198 256.28 657.83 257.576 659.846 258.632C 661.91 259.64 663.95 260.144 665.966 260.144C 666.878 260.144 667.766 260.048 668.63 259.856C 669.494 259.664 670.238 259.352 670.862 258.92C 671.534 258.488 672.062 257.912 672.446 257.192C 672.83 256.472 673.022 255.608 673.022 254.6C 673.022 253.64 672.782 252.824 672.302 252.152C 671.822 251.48 671.126 250.88 670.214 250.352C 669.35 249.776 668.246 249.272 666.902 248.84C 665.606 248.36 664.118 247.856 662.438 247.328C 660.806 246.8 659.198 246.176 657.614 245.456C 656.078 244.736 654.686 243.824 653.438 242.72C 652.238 241.568 651.254 240.2 650.486 238.616C 649.766 236.984 649.406 235.016 649.406 232.712C 649.406 229.88 649.982 227.456 651.134 225.44C 652.286 223.424 653.798 221.768 655.67 220.472C 657.542 219.176 659.654 218.24 662.006 217.664C 664.358 217.04 666.734 216.728 669.134 216.728C 672.014 216.728 674.942 217.256 677.918 218.312C 680.942 219.368 683.582 220.928 685.838 222.992L 677.99 231.272ZM 721.703 228.536L 721.703 269L 709.391 269L 709.391 228.536L 694.991 228.536L 694.991 218.024L 736.103 218.024L 736.103 228.536L 721.703 228.536ZM 772.847 247.4L 772.847 269L 760.535 269L 760.535 247.4L 741.383 218.024L 756.287 218.024L 767.159 236.888L 778.031 218.024L 792.431 218.024L 772.847 247.4ZM 803.443 269L 803.443 218.024L 815.827 218.024L 815.827 258.272L 835.556 258.272L 835.556 269L 803.443 269ZM 848.542 269L 848.542 218.024L 882.814 218.024L 882.814 228.464L 860.422 228.464L 860.422 238.04L 881.59 238.04L 881.59 247.904L 860.422 247.904L 860.422 258.488L 884.11 258.488L 884.11 269L 848.542 269Z"/>
</defs>
</svg>
