<?xml version="1.0" encoding="utf-8"?>
<!-- Generator: Adobe Illustrator 16.0.3, SVG Export Plug-In . SVG Version: 6.00 Build 0)  -->
<!DOCTYPE svg PUBLIC "-//W3C//DTD SVG 1.1//EN" "http://www.w3.org/Graphics/SVG/1.1/DTD/svg11.dtd">
<svg version="1.1" id="Layer_1" xmlns:figma="http://www.figma.com/figma/ns"
	 xmlns="http://www.w3.org/2000/svg" xmlns:xlink="http://www.w3.org/1999/xlink" x="0px" y="0px" width="4317px" height="3928px"
	 viewBox="0 0 4317 3928" enable-background="new 0 0 4317 3928" xml:space="preserve">
<title>logo</title>
<desc>Created using Figma</desc>
<g id="Canvas" transform="translate(2616 3416)" figma:type="canvas">
	<g id="logo" figma:type="frame">
		<g id="layer1" figma:type="frame">
			<g id="Vector" figma:type="vector">
				<g transform="translate(-2615.95 -3416)">
					<path id="path0_fill" fill="#FFFFFF" d="M2081.808,1526.215l1330.934,1909.1h146.265h142.437V1056H3436.95l20.208,1997.954
						l-1371.52-1996.993l-282.574-0.172l3.062,422.713l6.893,386.722l272.619,237.394L2081.808,1526.215z M1813.356,1891.777
						c0.007,3.484-0.085,2.358-0.177,1.118c-0.054-0.705-0.113-1.448-0.16-1.401c-0.767,0.767-213.654-163.878-364.514-296.358
						c-282.574-249.646-500.054-486.273-578.164-631.006c-87.948-163.028-23.207-352.764,173.067-392.848
						c225.199-48.101,409.952,80.985,555.956,245.052c15.875,17.758,23.916,26.755,33.962,31.312
						c10.323,4.679,22.767,4.679,47.977,4.679c59.731,0,85.769-17.612,96.489-65.092c14.55-61.263,9.189-112.57-13.784-150.093
						c-32.929-51.308-114.868-111.039-200.635-147.031c-107.976-44.416-183.022-62.794-304.017-62.794
						c-120.991,0-198.334,13.02-303.247,45.947c-506.146,158.862-345.944,733.146-67.39,1033.809
						c154.688,165.409,241.223,237.393,612.624,509.246c173.833,127.12,319.332,242.754,357.621,283.34
						c16.373,17.628,34.483,34.018,52.709,50.504c17.53,15.859,35.165,31.812,51.438,49.049
						c37.309,39.5,65.926,79.48,96.488,124.058c91.129,134.778,127.121,272.618,100.317,389.019
						c-42.93,188.903-222.115,318.458-397.442,374.469c-265.727,88.064-579.698,66.623-815.557-53.604
						c-93.113-48.137-168.51-103.435-226.672-190.681c41.095,0,81.353-2.381,113.336-32.162
						c19.911-19.146,23.739-73.517,7.658-105.68c-25.271-49.775-139.373-111.805-233.564-119.461
						c-98.786-8.425-158.517,17.611-196.041,68.153c-23.74,32.163-20.676,104.146,6.126,156.986
						c62.029,121.76,263.431,258.067,494.697,333.882c500.054,163.924,1523.969,35.991,1490.979-650.15
						c-8.209-170.771-85.769-315.504-267.26-518.437l-50.542-48.244L1813.356,1891.777z"/>
				</g>
			</g>
		</g>
	</g>
</g>
</svg>
